{"title":"David Bowie A Reality Tour 2004 DVDRip x264 AC3 5.1 titler","uid":13200130,"size":2369823955,"categoryP":"video","categoryS":"movies","magnet":"?xt=urn:btih:7e1df4b08ef5a10ea18f9730931b37be3d6df15e&amp;dn=David+Bowie+A+Reality+Tour+2004+DVDRip+x264+AC3+5.1+titler&amp;tr=udp%3A%2F%2Ftracker.leechers-paradise.org%3A6969&amp;tr=udp%3A%2F%2Fzer0day.ch%3A1337&amp;tr=udp%3A%2F%2Fopen.demonii.com%3A1337&amp;tr=udp%3A%2F%2Ftracker.coppersurfer.tk%3A6969&amp;tr=udp%3A%2F%2Fexodus.desync.com%3A6969","seeders":4,"leechers":2,"uploader":"movieZ.freak","files":4,"time":1452539266,"description":"SOURCE: DVD9 PAL\r\n \nhttp://www.imdb.com/title/tt0432815/\r\n \nhttps://en.wikipedia.org/wiki/A_Reality_Tour_%28film%29\r\n\r\n\r\nNOTE:\r\n----------\r\n- R.I.P. Mr. Bowie and thank you for everything!\r\n\r\n- All visual effects and colours are mixed up here. Black and white, sepia, mesh, reddish, pale, negative, blurred, pixelated parts, artistic...\r\n \nhttps://en.wikipedia.org/wiki/A_Reality_Tour_%28film%29  (Cinematography)\r\n\r\n\r\nDVD MENU\r\n-------------- \nhttp://someimage.com/WJev\r\n\r\n\r\n\r\nSCREENSHOTS:\r\n------------------- \nhttp://someimage.com/cW3W\r\n\r\n\r\n\r\n************************************************************************************\r\n01. Rebel Rebel / 02. New Killer Star / 03. Reality / 04. Fame / 05. Cactus / 06. Sister Midnight / 07. Afraid / 08. All The Young Dudes / 09. Be My Wife / 10. The Loneliest Guy / 11. The Man Who Sold The World / 12. Fantastic Voyage / 13. Hallo Spaceboy / 14. Sunday / 15. Under Pressure / 16. Life On Mars? / 17. Battle For Britain / 18. Ashes To Ashes / 19. The Motel / 20. Loving The Alien / 21. Never Get Old / 22. Changes / 23. I'm Afraid Of Americans / 24. Heroes / 25. Bring Me The Disco King / 26. Slip Away / 27. Heathen / 28. Five Years / 29. Hang On To Yourself / 30. Ziggy Stardust\r\n\r\n************************************************************************************\r\n\r\n- David Bowie – lead vocals, guitar, stylophone\r\n- Earl Slick – guitar\r\n- Gail Ann Dorsey – bass, vocals\r\n- Gerry &quot;Spookyghost&quot; Leonard – guitar\r\n- Sterling Campbell – drums\r\n- Mike Garson – keyboards\r\n- Catherine Russell – keyboards, backing vocals, guitar, percussion\r\n\r\n**********************************************************\r\n\r\n\r\nDIRECTOR: Marcus Viner\r\n\r\n\r\nINFO:\r\n-----------\r\nIn a career chock full of &quot;you've never seen him like this&quot; moments, you've never seen David Bowie as you will in A Reality Tour. The rock legend and his ace band blaze through stunners from Bowie's Reality album plus dozens of his greatest hits.\r\n\r\n************************************\r\n\r\n- Duration: 2h 27mn\r\n\r\n- Nominal bit rate: 1630 Kbps\r\n\r\n- Res: 720 x 404\r\n\r\n- AR: 16:9\r\n\r\n- FPS: 25.000 fps\r\n\r\n- Audio: AC3, 6 channels, 448Kbps\r\n\r\n************************************\r\n\r\nGeneral\r\n----------------\r\nFormat : Matroska\r\nFormat version : Version 4 / Version 2\r\nFile size : 2.15 GiB\r\nDuration : 2h 27mn\r\nOverall bit rate : 2084 Kbps\r\nEncoded date : UTC 2016-01-11 16:32:13\r\nWriting application : mkvmerge v8.8.0 ('Wind at my back') 64bit\r\nWriting library : libebml v1.3.3 + libmatroska v1.4.4\r\n\r\nVideo\r\n-------------\r\nFormat : AVC\r\nFormat/Info : Advanced Video Codec\r\nFormat profile :   \r\nFormat settings, CABAC : Yes\r\nFormat settings, ReFrames : 5 frames\r\nCodec ID : V_MPEG4/ISO/AVC\r\nDuration : 2h 27mn\r\nBit rate : 1630 Kbps\r\nWidth : 720 pixels\r\nHeight : 404 pixels\r\nDisplay aspect ratio : 16:9\r\nFrame rate mode : Constant\r\nFrame rate : 25.000 fps\r\nColor space : YUV\r\nChroma subsampling : 4:2:0\r\nBit depth : 8 bits\r\nScan type : Progressive\r\nBits/(Pixel*Frame) : 0.224\r\nStream size : 1.65 GiB (77%)\r\nWriting library : x264 core 142 r2479 dd79a61\r\nEncoding settings : cabac=1 / ref=5\r\nDefault : Yes\r\nForced : No\r\n\r\nAudio\r\n------------\r\nFormat : AC-3\r\nFormat/Info : Audio Coding 3\r\nMode extension : CM (complete main)\r\nFormat settings, Endianness : Big\r\nCodec ID : A_AC3\r\nDuration : 2h 27mn\r\nBit rate mode : Constant\r\nBit rate : 448 Kbps\r\nChannel(s) : 6 channels\r\nChannel positions : Front: L C R, Side: L R, LFE\r\nSampling rate : 48.0 KHz\r\nCompression mode : Lossy\r\nStream size : 474 MiB (21%)\r\nTitle : Surround\r\n Language : English\r\nDefault : Yes\r\nForced : No","torrent":{"xt":"urn:btih:7e1df4b08ef5a10ea18f9730931b37be3d6df15e","amp;dn":"David+Bowie+A+Reality+Tour+2004+DVDRip+x264+AC3+5.1+titler","amp;tr":["udp%3A%2F%2Ftracker.leechers-paradise.org%3A6969","udp%3A%2F%2Fzer0day.ch%3A1337","udp%3A%2F%2Fopen.demonii.com%3A1337","udp%3A%2F%2Ftracker.coppersurfer.tk%3A6969","udp%3A%2F%2Fexodus.desync.com%3A6969"],"infoHash":"7e1df4b08ef5a10ea18f9730931b37be3d6df15e","infoHashBuffer":{"type":"Buffer","data":[126,29,244,176,142,245,161,14,161,143,151,48,147,27,55,190,61,109,241,94]},"announce":[],"urlList":[]}}